<svg xmlns="http://www.w3.org/2000/svg" width="920" height="560" viewBox="0 0 920 560" role="img" aria-labelledby="title desc">
  <title id="title">Codex Profile Switcher window preview</title>
  <desc id="desc">Mock preview of the macOS utility window with profile cards and auth-only switch controls.</desc>
  <defs>
    <linearGradient id="bg" x1="0" y1="0" x2="1" y2="1">
      <stop offset="0" stop-color="#05070A"/>
      <stop offset="1" stop-color="#0A2530"/>
    </linearGradient>
    <filter id="shadow" x="-20%" y="-20%" width="140%" height="140%">
      <feDropShadow dx="0" dy="22" stdDeviation="22" flood-color="#000000" flood-opacity="0.35"/>
    </filter>
    <style>
      .grid { stroke:#142033; stroke-width:1; }
      .window { fill:#F8FAFC; stroke:#CBD5E1; stroke-width:1.4; filter:url(#shadow); }
      .titlebar { fill:#EEF2F7; }
      .dotR { fill:#FF5F57; }
      .dotY { fill:#FFBD2E; }
      .dotG { fill:#28C840; }
      .title { fill:#111827; font-family:sans-serif; font-size:20px; font-weight:800; }
      .small { fill:#6B7280; font-family:sans-serif; font-size:12px; font-weight:600; }
      .card { fill:#FFFFFF; stroke:#D8DEE8; stroke-width:1.4; }
      .active { fill:#EFF6FF; stroke:#3B82F6; stroke-width:2; }
      .label { fill:#111827; font-family:sans-serif; font-size:17px; font-weight:800; }
      .button { fill:#2563EB; }
      .buttonText { fill:#FFFFFF; font-family:sans-serif; font-size:12px; font-weight:800; }
      .pill { fill:#DCFCE7; }
      .pillText { fill:#15803D; font-family:sans-serif; font-size:11px; font-weight:800; }
      .mutedBtn { fill:#F3F4F6; stroke:#D8DEE8; stroke-width:1.2; }
      .mutedText { fill:#111827; font-family:sans-serif; font-size:12px; font-weight:800; }
    </style>
  </defs>

  <rect width="920" height="560" fill="url(#bg)"/>
  <g opacity="0.55">
    <path class="grid" d="M0 48H920M0 96H920M0 144H920M0 192H920M0 240H920M0 288H920M0 336H920M0 384H920M0 432H920M0 480H920M0 528H920"/>
    <path class="grid" d="M48 0V560M96 0V560M144 0V560M192 0V560M240 0V560M288 0V560M336 0V560M384 0V560M432 0V560M480 0V560M528 0V560M576 0V560M624 0V560M672 0V560M720 0V560M768 0V560M816 0V560M864 0V560"/>
  </g>

  <rect class="window" x="220" y="82" width="480" height="384" rx="16"/>
  <path class="titlebar" d="M220 98C220 89 227 82 236 82H684C693 82 700 89 700 98V128H220Z"/>
  <circle class="dotR" cx="244" cy="106" r="6"/>
  <circle class="dotY" cx="266" cy="106" r="6"/>
  <circle class="dotG" cx="288" cy="106" r="6"/>
  <text class="small" x="366" y="111">Codex Profile Switcher</text>

  <text class="title" x="246" y="164">Codex Profiles</text>
  <text class="small" x="246" y="190">Only auth.json changes. Shared Codex state stays untouched.</text>

  <rect class="active" x="246" y="218" width="428" height="78" rx="12"/>
  <text class="label" x="268" y="250">Personal</text>
  <text class="small" x="268" y="273">Local profile · active auth</text>
  <rect class="pill" x="584" y="236" width="64" height="24" rx="12"/>
  <text class="pillText" x="600" y="253">Active</text>

  <rect class="card" x="246" y="314" width="428" height="78" rx="12"/>
  <text class="label" x="268" y="346">Enterprise</text>
  <text class="small" x="268" y="369">Ready to switch</text>
  <rect class="button" x="584" y="338" width="66" height="30" rx="9"/>
  <text class="buttonText" x="600" y="358">Switch</text>

  <rect class="mutedBtn" x="246" y="414" width="112" height="30" rx="9"/>
  <text class="mutedText" x="270" y="434">Add Profile</text>
  <rect class="mutedBtn" x="598" y="414" width="76" height="30" rx="9"/>
  <text class="mutedText" x="622" y="434">Close</text>
</svg>
